<svg width="24" height="24" viewBox="0 0 28 28" fill="none" xmlns="http://www.w3.org/2000/svg" focusable="false" aria-hidden="true">
    <path d="M23.7132 14.7102L19.6052 16.7621C18.3698 17.3755 17.3755 18.3782 16.7578 19.6094L14.7059 23.7132C14.414 24.2971 13.5763 24.2971 13.2844 23.7132L11.2325 19.6094C10.619 18.3782 9.61631 17.3798 8.38516 16.7621L4.28554 14.7102C3.70169 14.4182 3.70169 13.5805 4.28554 13.2886L8.39362 11.2367C9.629 10.6232 10.6232 9.62054 11.2409 8.38939L13.2886 4.28554C13.5805 3.70169 14.4182 3.70169 14.7102 4.28554L16.7621 8.38939C17.3755 9.62054 18.3782 10.619 19.6094 11.2367L23.7175 13.2886C24.3013 13.5805 24.3013 14.4182 23.7175 14.7102H23.7132Z" fill="#000"/>
</svg>
